Coordinates
version=1
nRows=8
nColumns=63
inDegrees=yes

Units are S.I. units (second, meters, Newtons, ...)
If the header above contains a line with 'inDegrees', this indicates whether rotational values are in degrees (yes) or radians (no).

endheader
time	pelvis_tilt	pelvis_list	pelvis_rotation	pelvis_tx	pelvis_ty	pelvis_tz	hip_flexion_r	hip_adduction_r	hip_rotation_r	knee_angle_r	knee_angle_r_beta	ankle_angle_r	subtalar_angle_r	mtp_angle_r	hip_flexion_l	hip_adduction_l	hip_rotation_l	knee_angle_l	knee_angle_l_beta	ankle_angle_l	subtalar_angle_l	mtp_angle_l	L5_S1_Flex_Ext	L5_S1_Lat_Bending	L5_S1_axial_rotation	L4_L5_Flex_Ext	L4_L5_Lat_Bending	L4_L5_axial_rotation	L3_L4_Flex_Ext	L3_L4_Lat_Bending	L3_L4_axial_rotation	L2_L3_Flex_Ext	L2_L3_Lat_Bending	L2_L3_axial_rotation	L1_L2_Flex_Ext	L1_L2_Lat_Bending	L1_L2_axial_rotation	L1_T12_Flex_Ext	L1_T12_Lat_Bending	L1_T12_axial_rotation	Abs_r3	Abs_r2	Abs_r1	Abs_t1	Abs_t2	neck_flexion	neck_bending	neck_rotation	arm_flex_r	arm_add_r	arm_rot_r	elbow_flex_r	pro_sup_r	wrist_flex_r	wrist_dev_r	arm_flex_l	arm_add_l	arm_rot_l	elbow_flex_l	pro_sup_l	wrist_flex_l	wrist_dev_l
      1.26666667	     97.73101317	     46.21908642	   -156.06539829	     -0.06666941	      2.17848569	      0.21949478	     30.78390810	     17.18637631	    -37.22871205	     34.57551044	      0.60345650	     52.70351107	      0.94022878	      0.00000000	     75.99571786	    -29.89365543	     39.72939464	     76.73541281	      1.33928561	     64.89509286	     19.46429459	      0.00000000	     -0.06594130	      6.02027838	     -0.11859929	     -0.12245959	      8.00697025	     -0.12601174	     -0.10833497	     14.63770486	     -0.12601174	     -0.07536432	     14.63770486	     -0.10377438	     -0.06123309	     12.27655168	     -0.09636192	     -0.03767886	      9.32541121	     -0.08894947	     -0.47101214	     68.10259312	     -0.65961367	      0.00000000	      0.00000000	    -25.92543320	    -58.43117961	     14.10560358	      5.37395586	     -7.26240695	    -14.95707593	     62.88360175	     89.99559364	      0.00000000	      0.00000000	     29.80249587	     29.86616369	     91.53008427	     14.41862052	     89.99559364	      0.00000000	      0.00000000
      1.28333333	     97.81319148	     46.29485328	   -156.30543809	     -0.06659900	      2.17834213	      0.21951817	     30.76907348	     17.29290980	    -37.23218631	     34.41343782	      0.60062780	     52.97091185	      1.14858971	      0.00000000	     76.14590142	    -30.02133507	     39.73790678	     76.89504624	      1.34207174	     64.85394037	     19.45426450	      0.00000000	     -0.06880618	      6.04062856	     -0.20266321	     -0.12777996	      8.03403599	     -0.21532966	     -0.11304168	     14.68718429	     -0.21532966	     -0.07863859	     14.68718429	     -0.17733031	     -0.06389342	     12.31804977	     -0.16466386	     -0.03931585	      9.35693365	     -0.15199741	     -0.49147568	     68.33279844	     -1.12715198	      0.00000000	      0.00000000	    -26.04111392	    -58.28401877	     14.16898414	      4.95242529	     -7.17789229	    -14.65515856	     63.14033955	     89.99559364	      0.00000000	      0.00000000	     29.39355517	     29.79705771	     91.52850743	     14.37464728	     89.99559364	      0.00000000	      0.00000000
      1.30000000	     97.94026652	     46.60075435	   -156.61665872	     -0.06692188	      2.17806876	      0.21955739	     30.50622818	     17.74675840	    -37.63189209	     33.41245861	      0.58315741	     53.08129025	      1.96692133	      0.00000000	     76.48507275	    -30.43982106	     39.74583047	     76.85212483	      1.34132262	     64.76600473	     19.46942110	      0.00000000	     -0.06900570	      6.08838950	     -0.28989640	     -0.12815048	      8.09755803	     -0.30801492	     -0.11336946	     14.80331022	     -0.30801492	     -0.07886661	     14.80331022	     -0.25365935	     -0.06407869	     12.41544386	     -0.23554082	     -0.03942985	      9.43091533	     -0.21742230	     -0.49290078	     68.87307967	     -1.61231679	      0.00000000	      0.00000000	    -26.42422687	    -57.64249784	     14.59917497	      4.65912360	     -7.56251993	    -13.34150245	     63.10446670	     89.99559364	      0.00000000	      0.00000000	     29.03600818	     29.78423453	     91.17024611	     14.17218564	     89.99559364	      0.00000000	      0.00000000
      1.31666667	     98.40590206	     46.69843565	   -157.01144241	     -0.06700187	      2.17886269	      0.21905033	     30.75090401	     17.77945265	    -37.75704786	     33.01595629	      0.57623714	     53.14161414	      2.12968031	      0.00000000	     76.68353689	    -30.44372942	     39.73448603	     76.65909097	      1.33795354	     64.75459535	     19.46561913	      0.00000000	     -0.06836327	      6.10214291	     -0.37402704	     -0.12695743	      8.11585007	     -0.39740373	     -0.11231402	     14.83675026	     -0.39740373	     -0.07813238	     14.83675026	     -0.32727366	     -0.06348213	     12.44348982	     -0.30389697	     -0.03906277	      9.45221936	     -0.28052028	     -0.48831200	     69.02866099	     -2.08022616	      0.00000000	      0.00000000	    -26.48033622	    -57.45048822	     14.71821522	      4.63055862	     -7.34107916	    -13.05243211	     62.91665303	     89.99559364	      0.00000000	      0.00000000	     28.97335575	     29.61126693	     91.04976420	     14.13243398	     89.99559364	      0.00000000	      0.00000000
      1.33333333	     98.95005665	     47.06449813	   -157.84201494	     -0.06779572	      2.17917142	      0.21813507	     30.55379352	     18.50341354	    -37.94565103	     31.33873374	      0.54696409	     53.00160570	      3.09384960	      0.00000000	     77.07657239	    -31.10121280	     39.73354443	     76.30492645	      1.33177220	     64.67984959	     19.49244576	      0.00000000	     -0.07164431	      6.14564554	     -0.38276761	     -0.13305064	      8.17370857	     -0.40669059	     -0.11770443	     14.94252257	     -0.40669059	     -0.08188228	     14.94252257	     -0.33492166	     -0.06652890	     12.53220039	     -0.31099868	     -0.04093756	      9.51960495	     -0.28707571	     -0.51174811	     69.52077150	     -2.12883862	      0.00000000	      0.00000000	    -26.76575402	    -56.47983215	     15.47940038	      4.96084453	     -7.58617899	    -11.88707776	     61.82419448	     89.99559364	      0.00000000	      0.00000000	     28.82332227	     29.45305086	     90.34323903	     14.08649869	     89.99559364	      0.00000000	      0.00000000
      1.35000000	     99.60230018	     47.12207655	   -158.39949049	     -0.06804396	      2.18104193	      0.21715659	     30.96082748	     18.48029348	    -38.04832687	     30.92879066	      0.53980923	     52.79333113	      3.23870640	      0.00000000	     77.27225865	    -31.05273892	     39.71771861	     75.92521222	      1.32514494	     64.56434708	     19.49074893	      0.00000000	     -0.07295831	      6.15249557	     -0.39589613	     -0.13549088	      8.18281911	     -0.42063964	     -0.11986321	     14.95917773	     -0.42063964	     -0.08338406	     14.95917773	     -0.34640911	     -0.06774909	     12.54616897	     -0.32166560	     -0.04168838	      9.53021564	     -0.29692210	     -0.52113394	     69.59826038	     -2.20185549	      0.00000000	      0.00000000	    -26.81643022	    -56.24870647	     15.56881558	      5.09606873	     -7.40176184	    -11.75780340	     61.74221764	     89.99559364	      0.00000000	      0.00000000	     28.95779289	     29.27312551	     90.18738549	     14.08262542	     89.99559364	      0.00000000	      0.00000000
      1.36666667	    100.32617516	     47.47217705	   -159.99926991	     -0.06848420	      2.18165784	      0.21512966	     31.03502059	     19.23956991	    -37.96636365	     30.03396072	      0.52419150	     52.48902521	      4.30458963	      0.00000000	     77.80195394	    -32.19385061	     39.69765842	     75.81932260	      1.32329682	     64.67865667	     19.51855524	      0.00000000	     -0.07447022	      6.17487049	     -0.23339032	     -0.13829864	      8.21257775	     -0.24797722	     -0.12234712	     15.01358011	     -0.24797722	     -0.08511201	     15.01358011	     -0.20421653	     -0.06915304	     12.59179590	     -0.18962964	     -0.04255228	      9.56487439	     -0.17504274	     -0.53193332	     69.85136996	     -1.29804696	      0.00000000	      0.00000000	    -27.48772656	    -41.27430547	     13.48433238	      5.18434482	     -7.52294557	    -11.19251832	     60.93944792	     89.99559364	      0.00000000	      0.00000000	     26.80182425	     28.63227201	     75.34207384	     15.34972752	     89.99559364	      0.00000000	      0.00000000
      1.38333333	    100.89190435	     47.52540812	   -160.76934959	     -0.06837876	      2.18307442	      0.21397259	     31.49064470	     19.22333847	    -37.93274285	     30.22423551	      0.52751242	     52.23729052	      4.57448896	      0.00000000	     78.11912604	    -32.39411779	     39.67013105	     75.70474338	      1.32129703	     64.71394012	     19.52678443	      0.00000000	     -0.07658693	      6.18138187	     -0.22479704	     -0.14222959	      8.22123789	     -0.23884686	     -0.12582467	     15.02941189	     -0.23884686	     -0.08753120	     15.02941189	     -0.19669741	     -0.07111862	     12.60507392	     -0.18264760	     -0.04376177	      9.57496052	     -0.16859778	     -0.54705279	     69.92502805	     -1.25025370	      0.00000000	      0.00000000	    -27.58714561	    -40.56261471	     12.49875999	      5.35534936	     -7.41888029	    -10.89405019	     60.41114480	     89.99559364	      0.00000000	      0.00000000	     22.95706418	     28.73073917	     51.01255793	     17.09144932	     89.99559364	      0.00000000	      0.00000000
